# xmcd
#
# Track frame offsets:
#	150
#	14508
#	29396
#	43330
#	61551
#	77733
#	93487
#	111040
#	125711
#	141755
#	155758
#	170611
#	186418
#
# Disc length: 2761 seconds
#
# Revision: 1
# Processed by: cddbd v1.5.2PL0 Copyright (c) Steve Scherf et al.
# Submitted via: audiograbber 1.83.01
#
DISCID=b40ac70d
DTITLE=Various Artist - Mud Digger Vol. 5
DYEAR=2014
DGENRE=Country
TTITLE0=Colt Ford - Truck Step
TTITLE1=Cap Bailey - Dip-N-Brews
TTITLE2=Twang and Round - All Wired Up
TTITLE3=Country Folks (Remix) - Bubba Aparxxx, Colt Ford, JJ Lawhorn and I4NI
TTITLE4=05 Goin' Deep - The Lacs and Luke Martin
TTITLE5=Sarah Ross - Shotgun
TTITLE6=Danny Boone and Lenny Cooper - Big Foot
TTITLE7=Wheelz Fall Of - Demun Jones
TTITLE8=Too Easy - Moonshine Bandits and Danel Lee
TTITLE9=Hillbillies with Guitars - LoCash Cowboys
TTITLE10=Country Boys - Redneck Souljers and J Rosevelt
TTITLE11=Standard American - Standard American
TTITLE12=The Lacs and Cap Bailey - Smoke Stack (Remix)
EXTD=
EXTT0=
EXTT1=
EXTT2=
EXTT3=
EXTT4=
EXTT5=
EXTT6=
EXTT7=
EXTT8=
EXTT9=
EXTT10=
EXTT11=
EXTT12=
PLAYORDER=
